<svg width="41" height="30" viewBox="0 0 41 30" fill="none" xmlns="http://www.w3.org/2000/svg">
<path d="M4.56524 26.7393H2.60872C2.43575 26.7393 2.26987 26.808 2.14756 26.9303C2.02525 27.0526 1.95654 27.2185 1.95654 27.3914C1.95654 27.5644 2.02525 27.7303 2.14756 27.8526C2.26987 27.9749 2.43575 28.0436 2.60872 28.0436H4.56524C4.73821 28.0436 4.90409 27.9749 5.0264 27.8526C5.1487 27.7303 5.21741 27.5644 5.21741 27.3914C5.21741 27.2185 5.1487 27.0526 5.0264 26.9303C4.90409 26.808 4.73821 26.7393 4.56524 26.7393Z" fill="black"/>
<path d="M7.17398 26.7393H6.5218C6.34884 26.7393 6.18295 26.808 6.06065 26.9303C5.93834 27.0526 5.86963 27.2185 5.86963 27.3914C5.86963 27.5644 5.93834 27.7303 6.06065 27.8526C6.18295 27.9749 6.34884 28.0436 6.5218 28.0436H7.17398C7.34694 28.0436 7.51283 27.9749 7.63513 27.8526C7.75744 27.7303 7.82615 27.5644 7.82615 27.3914C7.82615 27.2185 7.75744 27.0526 7.63513 26.9303C7.51283 26.808 7.34694 26.7393 7.17398 26.7393Z" fill="black"/>
<path d="M37.8261 7.82609H36.5217V2.6087C36.5208 1.9171 36.2457 1.2541 35.7567 0.76507C35.2676 0.276041 34.6046 0.000905931 33.913 0H6.52174C5.83011 0.000776774 5.16703 0.27587 4.67797 0.764928C4.18891 1.25398 3.91382 1.91707 3.91304 2.6087V14.3478H2.6087C1.91707 14.3486 1.25398 14.6237 0.764927 15.1128C0.27587 15.6018 0.000776774 16.2649 0 16.9565V27.3913C0.000776774 28.0829 0.27587 28.746 0.764927 29.2351C1.25398 29.7241 1.91707 29.9992 2.6087 30H9.13043C9.82203 29.9991 10.485 29.724 10.9741 29.2349C11.4631 28.7459 11.7382 28.0829 11.7391 27.3913V25.4348H17.4253L17.0992 26.7391H15C14.827 26.7391 14.6611 26.8078 14.5388 26.9301C14.4165 27.0525 14.3478 27.2183 14.3478 27.3913V29.3478C14.3478 29.5208 14.4165 29.6867 14.5388 29.809C14.6611 29.9313 14.827 30 15 30H37.8261C38.5177 29.9991 39.1807 29.724 39.6697 29.2349C40.1587 28.7459 40.4339 28.0829 40.4348 27.3913V10.4348C40.4339 9.74319 40.1587 9.08019 39.6697 8.59116C39.1807 8.10213 38.5177 7.82699 37.8261 7.82609ZM10.4348 27.3913C10.4343 27.7371 10.2968 28.0686 10.0522 28.3131C9.80773 28.5576 9.47623 28.6952 9.13043 28.6957H2.6087C2.2629 28.6952 1.9314 28.5576 1.68688 28.3131C1.44237 28.0686 1.3048 27.7371 1.30435 27.3913V16.9565C1.3048 16.6107 1.44237 16.2792 1.68688 16.0347C1.9314 15.7902 2.2629 15.6526 2.6087 15.6522H3.44266L3.94647 17.1628C3.98976 17.2926 4.07281 17.4056 4.18386 17.4856C4.29491 17.5656 4.42833 17.6087 4.56522 17.6087H7.17391C7.3108 17.6087 7.44422 17.5656 7.55527 17.4856C7.66632 17.4056 7.74937 17.2926 7.79266 17.1628L8.29647 15.6522H9.13043C9.47623 15.6526 9.80773 15.7902 10.0522 16.0347C10.2968 16.2792 10.4343 16.6107 10.4348 16.9565V27.3913ZM4.81793 15.6522H6.9212L6.70353 16.3043H5.0356L4.81793 15.6522ZM11.7391 24.1304V22.1739H23.4783V24.1304H11.7391ZM23.4783 25.4348V26.7391H23.3356L23.0095 25.4348H23.4783ZM21.9905 26.7391H18.4443L18.7704 25.4348H21.6644L21.9905 26.7391ZM15.6522 28.6957V28.0435H23.5606C23.6203 28.2721 23.7108 28.4915 23.8296 28.6957H15.6522ZM23.4783 10.4348V20.8696H11.7391V16.9565C11.7382 16.2649 11.4631 15.6019 10.9741 15.1129C10.485 14.6239 9.82203 14.3487 9.13043 14.3478H5.21739V2.6087C5.21784 2.2629 5.35541 1.9314 5.59993 1.68688C5.84444 1.44237 6.17594 1.3048 6.52174 1.30435H33.913C34.2588 1.3048 34.5903 1.44237 34.8349 1.68688C35.0794 1.9314 35.2169 2.2629 35.2174 2.6087V7.82609H26.087C25.3954 7.82699 24.7324 8.10213 24.2433 8.59116C23.7543 9.08019 23.4792 9.74319 23.4783 10.4348ZM39.1304 27.3913C39.13 27.7371 38.9924 28.0686 38.7479 28.3131C38.5034 28.5576 38.1719 28.6952 37.8261 28.6957H26.087C25.7412 28.6952 25.4097 28.5576 25.1651 28.3131C24.9206 28.0686 24.7831 27.7371 24.7826 27.3913V10.4348C24.7831 10.089 24.9206 9.75748 25.1651 9.51297C25.4097 9.26846 25.7412 9.13089 26.087 9.13043H37.8261C38.1719 9.13089 38.5034 9.26846 38.7479 9.51297C38.9924 9.75748 39.13 10.089 39.1304 10.4348V27.3913Z" fill="black"/>
<path d="M37.8259 9.78223H26.0867C25.9138 9.78223 25.7479 9.85094 25.6256 9.97324C25.5033 10.0955 25.4346 10.2614 25.4346 10.4344V25.4344C25.4346 25.6074 25.5033 25.7733 25.6256 25.8956C25.7479 26.0179 25.9138 26.0866 26.0867 26.0866H37.8259C37.9988 26.0866 38.1647 26.0179 38.287 25.8956C38.4093 25.7733 38.478 25.6074 38.478 25.4344V10.4344C38.478 10.2614 38.4093 10.0955 38.287 9.97324C38.1647 9.85094 37.9988 9.78223 37.8259 9.78223ZM37.1737 24.7822H26.7389V11.0866H37.1737V24.7822Z" fill="black"/>
<path d="M31.3045 28.0436C31.6647 28.0436 31.9567 27.7516 31.9567 27.3914C31.9567 27.0312 31.6647 26.7393 31.3045 26.7393C30.9443 26.7393 30.6523 27.0312 30.6523 27.3914C30.6523 27.7516 30.9443 28.0436 31.3045 28.0436Z" fill="black"/>
</svg>
