<svg id="facebook" xmlns="http://www.w3.org/2000/svg" width="20" height="20" viewBox="0 0 20 20">
  <path id="Path_1123" data-name="Path 1123" d="M20,10a10,10,0,0,1-8.437,9.879V12.891h2.33L14.336,10H11.563V8.124a1.445,1.445,0,0,1,1.63-1.562h1.261V4.1a15.381,15.381,0,0,0-2.239-.2A3.529,3.529,0,0,0,8.438,7.8V10H5.9v2.891H8.438v6.988A10,10,0,1,1,20,10Z" fill="#1877f2"/>
  <path id="Path_1124" data-name="Path 1124" d="M158.994,108.984l.443-2.891h-2.773v-1.876a1.445,1.445,0,0,1,1.63-1.562h1.261V100.2a15.378,15.378,0,0,0-2.238-.2,3.529,3.529,0,0,0-3.777,3.891v2.2H151v2.891h2.539v6.988a10.106,10.106,0,0,0,3.125,0v-6.988Z" transform="translate(-145.102 -96.094)" fill="#fff"/>
</svg>
