<svg width="9" height="10" viewBox="0 0 9 10" fill="none" xmlns="http://www.w3.org/2000/svg">
<path d="M0.573242 3.30859L1.06155 9.20335C1.09654 9.62846 1.45865 9.96176 1.88537 9.96176H6.38462C6.81134 9.96176 7.17344 9.62846 7.20843 9.20335L7.69672 3.30859H0.573242ZM2.75631 8.85902C2.612 8.85902 2.49058 8.74677 2.48143 8.60056L2.20575 4.15287C2.19632 4.00076 2.31181 3.86992 2.46366 3.86049C2.62115 3.84945 2.74635 3.9663 2.75603 4.11841L3.03171 8.5661C3.04147 8.72361 2.91685 8.85902 2.75631 8.85902ZM4.41067 8.58334C4.41067 8.73572 4.28736 8.85902 4.13498 8.85902C3.9826 8.85902 3.8593 8.73572 3.8593 8.58334V4.13564C3.8593 3.98326 3.9826 3.85996 4.13498 3.85996C4.28736 3.85996 4.41067 3.98326 4.41067 4.13564V8.58334ZM6.06422 4.15288L5.78853 8.60058C5.77947 8.74529 5.65885 8.8659 5.49616 8.85849C5.34431 8.84906 5.22882 8.71822 5.23825 8.56612L5.51393 4.11842C5.52336 3.96632 5.65663 3.85566 5.8063 3.86051C5.95815 3.86994 6.07364 4.00078 6.06422 4.15288Z" fill="white"/>
<path d="M7.71914 1.65449H6.06504V1.37881C6.06504 0.922754 5.69404 0.551758 5.23799 0.551758H3.03252C2.57647 0.551758 2.20547 0.922754 2.20547 1.37881V1.65449H0.551367C0.246847 1.65449 0 1.90134 0 2.20586C0 2.51034 0.246847 2.75723 0.551367 2.75723C3.08703 2.75723 5.18357 2.75723 7.71914 2.75723C8.02366 2.75723 8.27051 2.51034 8.27051 2.20586C8.27051 1.90134 8.02366 1.65449 7.71914 1.65449ZM5.51367 1.65449H2.75684V1.37881C2.75684 1.2267 2.88042 1.10312 3.03252 1.10312H5.23799C5.39009 1.10312 5.51367 1.2267 5.51367 1.37881V1.65449Z" fill="white"/>
</svg>
