<svg width="20" height="20" viewBox="0 0 20 20" fill="none" xmlns="http://www.w3.org/2000/svg">
<path d="M5.57582 17.0754C6.76527 17.4114 8.33633 17.5965 9.99957 17.5965C11.6628 17.5965 13.2339 17.4114 14.4233 17.0754C15.8785 16.6643 16.6164 16.0693 16.6164 15.3068C16.6164 14.5444 15.8785 13.9494 14.4233 13.5383C13.7584 13.3505 12.9738 13.2101 12.1208 13.1225C13.7912 10.2715 15.4464 7.04336 15.4464 5.44684C15.4464 2.44344 13.003 0 9.99957 0C6.99613 0 4.5527 2.44344 4.5527 5.44684C4.5527 7.04332 6.20793 10.2714 7.87828 13.1224C7.02531 13.21 6.24086 13.3504 5.57586 13.5383C4.12066 13.9494 3.38281 14.5444 3.38281 15.3068C3.38277 16.0693 4.12063 16.6643 5.57582 17.0754ZM9.99957 1.17188C12.3568 1.17188 14.2746 3.08961 14.2746 5.44684C14.2746 6.65762 12.7764 9.83152 10.2671 13.9371C10.1843 14.0727 10.0524 14.0873 9.99953 14.0873C9.94672 14.0873 9.8148 14.0727 9.73191 13.9371C7.22262 9.83152 5.72449 6.65766 5.72449 5.44684C5.72457 3.08961 7.6423 1.17188 9.99957 1.17188ZM6.10719 14.6089C6.80582 14.431 7.64289 14.3061 8.5452 14.2411C8.60781 14.3444 8.67012 14.4468 8.73203 14.5481C9.00414 14.9934 9.47797 15.2591 9.99953 15.2591C10.5211 15.2591 10.9949 14.9933 11.267 14.5481C11.3289 14.4468 11.3913 14.3444 11.4539 14.2411C12.3562 14.3061 13.1932 14.431 13.8919 14.6089C14.9629 14.8817 15.3541 15.1888 15.4345 15.3068C15.3541 15.4249 14.9629 15.732 13.892 16.0047C12.8289 16.2755 11.4466 16.4246 9.99953 16.4246C8.5525 16.4246 7.17012 16.2755 6.10715 16.0047C5.03621 15.732 4.645 15.4248 4.56457 15.3068C4.64504 15.1888 5.03625 14.8817 6.10719 14.6089Z" fill="black"/>
<path d="M18.2941 14.0227C18.0104 13.8669 17.6542 13.9705 17.4984 14.2541C17.3426 14.5378 17.4462 14.894 17.7298 15.0498C18.4278 15.4332 18.8281 15.8583 18.8281 16.2161C18.8281 16.6536 18.2082 17.3317 16.4682 17.9229C14.7493 18.5069 12.4521 18.8285 10 18.8285C7.54785 18.8285 5.2507 18.5069 3.53176 17.9229C1.7918 17.3318 1.17188 16.6536 1.17188 16.2161C1.17188 15.8583 1.57219 15.4332 2.27016 15.0498C2.55379 14.894 2.65738 14.5377 2.50156 14.2541C2.34574 13.9705 1.98961 13.8669 1.7059 14.0227C0.927695 14.4502 0 15.1778 0 16.2161C0 17.0119 0.547344 18.1466 3.15477 19.0325C4.99195 19.6566 7.42297 20.0004 10 20.0004C12.577 20.0004 15.008 19.6566 16.8452 19.0325C19.4527 18.1466 20 17.0119 20 16.2161C20 15.1778 19.0723 14.4502 18.2941 14.0227Z" fill="black"/>
<path d="M12.1892 5.07305C12.1892 3.8659 11.2071 2.88379 9.99988 2.88379C8.7927 2.88379 7.81055 3.8659 7.81055 5.07305C7.81055 6.28023 8.7927 7.26234 9.99988 7.26234C11.2071 7.26234 12.1892 6.28027 12.1892 5.07305ZM8.98242 5.07305C8.98242 4.51207 9.43887 4.05566 9.99988 4.05566C10.5609 4.05566 11.0173 4.51207 11.0173 5.07305C11.0173 5.63402 10.5609 6.09047 9.99988 6.09047C9.43887 6.09047 8.98242 5.63406 8.98242 5.07305Z" fill="black"/>
</svg>
