<svg width="17" height="19" viewBox="0 0 17 19" fill="none" xmlns="http://www.w3.org/2000/svg">
<path d="M11.5216 12.5535C13.5434 9.38095 13.2892 9.77676 13.3475 9.69405C14.0836 8.6558 14.4727 7.43382 14.4727 6.16016C14.4727 2.78246 11.7317 0 8.34961 0C4.97852 0 2.22656 2.77697 2.22656 6.16016C2.22656 7.43301 2.62378 8.68697 3.384 9.73921L5.17757 12.5536C3.25995 12.8483 0 13.7265 0 15.6602C0 16.365 0.460082 17.3696 2.65191 18.1524C4.18237 18.699 6.20584 19 8.34961 19C12.3583 19 16.6992 17.8692 16.6992 15.6602C16.6992 13.7261 13.4431 12.8489 11.5216 12.5535ZM4.31393 9.12687C4.3078 9.11729 4.30142 9.10794 4.29474 9.09874C3.66214 8.22845 3.33984 7.19703 3.33984 6.16016C3.33984 3.37629 5.58147 1.11328 8.34961 1.11328C11.112 1.11328 13.3594 3.37729 13.3594 6.16016C13.3594 7.1987 13.0432 8.19512 12.4448 9.04248C12.3912 9.11321 12.6709 8.67858 8.34961 15.4594L4.31393 9.12687ZM8.34961 17.8867C3.97093 17.8867 1.11328 16.5997 1.11328 15.6602C1.11328 15.0287 2.58162 13.9904 5.83537 13.5857L7.88018 16.7943C7.98238 16.9547 8.15939 17.0518 8.34957 17.0518C8.53976 17.0518 8.71681 16.9546 8.81897 16.7943L10.8637 13.5857C14.1176 13.9904 15.5859 15.0287 15.5859 15.6602C15.5859 16.5917 12.754 17.8867 8.34961 17.8867Z" fill="black"/>
<path d="M8.34961 3.37695C6.81495 3.37695 5.56641 4.6255 5.56641 6.16016C5.56641 7.69481 6.81495 8.94336 8.34961 8.94336C9.88427 8.94336 11.1328 7.69481 11.1328 6.16016C11.1328 4.6255 9.88427 3.37695 8.34961 3.37695ZM8.34961 7.83008C7.42881 7.83008 6.67969 7.08095 6.67969 6.16016C6.67969 5.23936 7.42881 4.49023 8.34961 4.49023C9.2704 4.49023 10.0195 5.23936 10.0195 6.16016C10.0195 7.08095 9.2704 7.83008 8.34961 7.83008Z" fill="black"/>
</svg>
