<svg width="25" height="25" viewBox="0 0 25 25" fill="none" xmlns="http://www.w3.org/2000/svg">
<path d="M25 12.5C25 13.5673 23.6923 14.4231 23.4231 15.4327C23.1538 16.4423 23.8462 17.8654 23.3269 18.75C22.8077 19.6346 21.2308 19.7596 20.5 20.5C19.7692 21.2404 19.6538 22.8077 18.75 23.3269C17.8462 23.8462 16.4423 23.1538 15.4327 23.4231C14.4231 23.6923 13.5673 25 12.5 25C11.4327 25 10.5769 23.6923 9.61538 23.4231C8.65385 23.1538 7.18269 23.8462 6.29808 23.3269C5.41346 22.8077 5.28846 21.2308 4.54808 20.5C3.80769 19.7692 2.24038 19.6538 1.72115 18.75C1.20192 17.8462 1.89423 16.4423 1.625 15.4327C1.35577 14.4231 0 13.5673 0 12.5C0 11.4327 1.30769 10.5769 1.57692 9.61538C1.84615 8.65385 1.15385 7.18269 1.67308 6.29808C2.19231 5.41346 3.76923 5.24038 4.5 4.5C5.23077 3.75962 5.34615 2.19231 6.25 1.67308C7.15385 1.15385 8.55769 1.84615 9.56731 1.57692C10.5769 1.30769 11.4327 0 12.5 0C13.5673 0 14.4231 1.30769 15.4327 1.57692C16.4423 1.84615 17.8654 1.15385 18.75 1.67308C19.6346 2.19231 19.7596 3.76923 20.5 4.5C21.2404 5.23077 22.8077 5.34615 23.3269 6.25C23.8462 7.15385 23.1538 8.55769 23.4231 9.56731C23.6923 10.5769 25 11.4327 25 12.5Z" fill="#062E25" fill-opacity="0.42"/>
<path d="M12.4992 20.6743C17.0131 20.6743 20.6723 17.0151 20.6723 12.5012C20.6723 7.98734 17.0131 4.32812 12.4992 4.32812C7.98538 4.32812 4.32617 7.98734 4.32617 12.5012C4.32617 17.0151 7.98538 20.6743 12.4992 20.6743Z" fill="#062E25"/>
<path d="M11.664 15.0151C11.5693 15.0156 11.4754 14.9971 11.3879 14.9608C11.3004 14.9244 11.221 14.871 11.1544 14.8036L8.91403 12.6017C8.77898 12.4664 8.70312 12.2832 8.70312 12.0921C8.70312 11.9009 8.77898 11.7177 8.91403 11.5824C9.04925 11.4474 9.23254 11.3715 9.42364 11.3715C9.61475 11.3715 9.79804 11.4474 9.93326 11.5824L11.664 13.294L15.0679 9.93821C15.2043 9.80305 15.3888 9.72762 15.5809 9.72852C15.7729 9.72943 15.9568 9.80658 16.0919 9.94301C16.2271 10.0794 16.3025 10.264 16.3016 10.456C16.3007 10.6481 16.2235 10.8319 16.0871 10.9671L12.164 14.8132C12.0991 14.8795 12.0212 14.9317 11.9351 14.9664C11.8491 15.0012 11.7568 15.0178 11.664 15.0151Z" fill="white"/>
</svg>
