<svg width="17" height="19" viewBox="0 0 17 19" fill="none" xmlns="http://www.w3.org/2000/svg">
<path d="M13.7871 11.312H9.62542C9.96879 10.2816 10.1513 9.41446 10.1814 8.67472C10.2524 6.93017 9.42866 6.23945 8.72518 5.96721C8.6957 5.9558 8.66508 5.94756 8.63385 5.94265C8.08871 5.85663 7.89467 6.11309 7.76608 6.40299L7.74916 6.44088C7.73035 6.48247 7.71806 6.52672 7.71272 6.57206C7.6027 7.51476 7.30669 8.42626 6.84184 9.25373C6.377 10.0812 5.75255 10.8082 5.0047 11.3926C4.92627 11.2679 4.81752 11.1651 4.68861 11.0939C4.55969 11.0226 4.41482 10.9852 4.26752 10.9851H1.19379C0.962705 10.9854 0.741161 11.0773 0.577762 11.2407C0.414363 11.4041 0.322453 11.6256 0.322198 11.8567V18.1284C0.322453 18.3595 0.414363 18.581 0.577762 18.7444C0.741161 18.9078 0.962705 18.9997 1.19379 19H4.26752C4.44633 18.9998 4.62076 18.9447 4.76723 18.8421C4.91371 18.7396 5.02516 18.5945 5.08653 18.4266C5.42485 18.695 5.81857 18.885 6.23926 18.9828C6.27083 18.9901 6.3031 18.994 6.33552 18.9944C6.68386 18.9981 7.09915 19 7.57805 19C8.0558 19 8.59678 18.9981 9.19706 18.9944H13.1176C13.3468 18.9945 13.5719 18.9336 13.7699 18.8181C13.9679 18.7027 14.1317 18.5366 14.2445 18.3371C14.3572 18.1375 14.415 17.9116 14.4117 17.6824C14.4085 17.4532 14.3445 17.2289 14.2261 17.0326C14.4878 16.8343 14.6642 16.5439 14.7195 16.2203C14.7749 15.8968 14.7051 15.5642 14.5242 15.2902C14.7782 15.0749 14.9393 14.7699 14.9739 14.4388C15.0085 14.1076 14.914 13.7759 14.7101 13.5127C14.8888 13.3309 15.0098 13.1003 15.058 12.8499C15.1061 12.5995 15.0791 12.3405 14.9805 12.1054C14.8819 11.8703 14.716 11.6695 14.5037 11.5284C14.2913 11.3873 14.042 11.312 13.7871 11.3121V11.312ZM4.24848 18.1094H1.21293V11.8757H4.24848V18.1094ZM11.1823 13.9006H13.6866C13.793 13.9016 13.8947 13.9446 13.9695 14.0202C14.0444 14.0957 14.0864 14.1978 14.0864 14.3042C14.0864 14.4106 14.0444 14.5127 13.9695 14.5883C13.8947 14.6639 13.793 14.7069 13.6866 14.7079H11.5393C11.4212 14.7079 11.3079 14.7548 11.2244 14.8383C11.1409 14.9218 11.094 15.0351 11.094 15.1532C11.094 15.2713 11.1409 15.3846 11.2244 15.4681C11.3079 15.5516 11.4212 15.5985 11.5393 15.5985H13.4438C13.5502 15.5995 13.6519 15.6425 13.7267 15.7181C13.8016 15.7937 13.8436 15.8958 13.8436 16.0022C13.8436 16.1086 13.8016 16.2107 13.7267 16.2862C13.6519 16.3618 13.5502 16.4048 13.4438 16.4058H11.8522C11.7341 16.4058 11.6209 16.4527 11.5374 16.5363C11.4538 16.6198 11.4069 16.733 11.4069 16.8511C11.4069 16.9692 11.4538 17.0825 11.5374 17.166C11.6209 17.2495 11.7341 17.2965 11.8522 17.2965H13.1177C13.2241 17.2975 13.3257 17.3405 13.4006 17.416C13.4755 17.4916 13.5175 17.5937 13.5175 17.7001C13.5175 17.8065 13.4755 17.9086 13.4006 17.9842C13.3257 18.0598 13.2241 18.1028 13.1177 18.1038H9.19431C8.02385 18.111 7.08279 18.1112 6.39627 18.1043C6.13299 18.0369 5.88599 17.9171 5.67002 17.7522C5.45404 17.5872 5.27352 17.3804 5.13922 17.1441V12.3982C6.06395 11.7661 6.84679 10.9482 7.43781 9.99671C8.02883 9.04519 8.41505 7.98093 8.57184 6.87183C8.87224 7.02865 9.34068 7.43274 9.29177 8.6385C9.25985 9.42295 9.02673 10.3926 8.57926 11.6029C8.55437 11.6702 8.54611 11.7425 8.55521 11.8137C8.56431 11.8849 8.59048 11.9529 8.6315 12.0118C8.67252 12.0707 8.72717 12.1188 8.7908 12.1521C8.85443 12.1853 8.92515 12.2026 8.99693 12.2026H13.7871C13.8934 12.2037 13.9951 12.2466 14.07 12.3222C14.1449 12.3978 14.1869 12.4999 14.1869 12.6063C14.1869 12.7127 14.1449 12.8148 14.07 12.8904C13.9951 12.966 13.8934 13.0089 13.7871 13.0099H11.1823C11.0642 13.0099 10.9509 13.0569 10.8674 13.1404C10.7839 13.2239 10.737 13.3372 10.737 13.4553C10.737 13.5734 10.7839 13.6866 10.8674 13.7701C10.9509 13.8537 11.0642 13.9006 11.1823 13.9006ZM1.44847 12.6211C1.44847 12.503 1.49538 12.3897 1.5789 12.3062C1.66241 12.2227 1.77568 12.1758 1.89378 12.1758H2.22057C2.33867 12.1758 2.45194 12.2227 2.53545 12.3062C2.61896 12.3897 2.66588 12.503 2.66588 12.6211C2.66588 12.7392 2.61896 12.8525 2.53545 12.936C2.45194 13.0195 2.33867 13.0664 2.22057 13.0664H1.89382C1.77571 13.0664 1.66245 13.0195 1.57893 12.936C1.49542 12.8525 1.44851 12.7392 1.44851 12.6211H1.44847ZM11.3218 2.17782C11.2955 2.09666 11.2463 2.02478 11.1803 1.97075C11.1142 1.91671 11.034 1.8828 10.9492 1.87304L9.38417 1.69299L8.7293 0.260195C8.69382 0.182574 8.63678 0.116783 8.56498 0.0706536C8.49318 0.0245244 8.40963 0 8.32428 0C8.23894 0 8.15539 0.0245244 8.08359 0.0706536C8.01179 0.116783 7.95475 0.182574 7.91927 0.260195L7.26437 1.69299L5.69935 1.87304C5.61457 1.8828 5.53438 1.91672 5.46833 1.97075C5.40227 2.02479 5.35314 2.09666 5.32677 2.17783C5.3004 2.25899 5.2979 2.34602 5.31958 2.42856C5.34126 2.5111 5.3862 2.58567 5.44905 2.6434L6.60935 3.70899L6.29696 5.25308C6.28004 5.33673 6.28752 5.42348 6.31849 5.503C6.34947 5.58252 6.40264 5.65147 6.47169 5.70163C6.54073 5.75179 6.62273 5.78106 6.70794 5.78595C6.79314 5.79083 6.87795 5.77113 6.95228 5.72919L8.32428 4.95494L9.69626 5.72919C9.77058 5.77113 9.8554 5.79083 9.9406 5.78595C10.0258 5.78106 10.1078 5.75179 10.1768 5.70163C10.2459 5.65147 10.2991 5.58252 10.33 5.503C10.361 5.42348 10.3685 5.33673 10.3516 5.25308L10.0392 3.70899L11.1995 2.6434C11.2624 2.58567 11.3073 2.5111 11.329 2.42856C11.3507 2.34602 11.3482 2.25899 11.3218 2.17782ZM9.25172 3.22301C9.19525 3.27488 9.15312 3.34045 9.12942 3.41337C9.10573 3.4863 9.10126 3.56411 9.11646 3.63927L9.28546 4.47471L8.54327 4.05582C8.47649 4.01814 8.40111 3.99834 8.32443 3.99834C8.24776 3.99834 8.17238 4.01814 8.1056 4.05582L7.36341 4.47471L7.53241 3.63927C7.54761 3.56411 7.54314 3.4863 7.51944 3.41337C7.49575 3.34045 7.45362 3.27488 7.39714 3.22301L6.76907 2.64644L7.61583 2.54903C7.69201 2.54027 7.76465 2.51198 7.82669 2.4669C7.88873 2.42183 7.93808 2.3615 7.96996 2.29175L8.32428 1.51653L8.67861 2.29175C8.71048 2.36149 8.75983 2.42182 8.82186 2.4669C8.8839 2.51197 8.95652 2.54026 9.0327 2.54903L9.8795 2.64644L9.25172 3.22301ZM16.6268 3.84775C16.6004 3.76658 16.5513 3.6947 16.4852 3.64067C16.4191 3.58663 16.3389 3.55272 16.2542 3.54297L15.0388 3.4031L14.5304 2.29038C14.4949 2.21276 14.4378 2.14696 14.366 2.10084C14.2942 2.05471 14.2107 2.03018 14.1253 2.03018C14.04 2.03018 13.9564 2.05471 13.8846 2.10084C13.8128 2.14696 13.7558 2.21276 13.7203 2.29038L13.2116 3.4031L11.9962 3.54297C11.9114 3.55273 11.8312 3.58664 11.7651 3.64068C11.6991 3.69471 11.6499 3.76659 11.6236 3.84775C11.5972 3.92891 11.5947 4.01594 11.6164 4.09848C11.6381 4.18102 11.683 4.25559 11.7458 4.31332L12.6469 5.14086L12.4044 6.34001C12.3874 6.42366 12.3949 6.51041 12.4259 6.58993C12.4569 6.66946 12.51 6.7384 12.5791 6.78856C12.6481 6.83873 12.7301 6.86799 12.8153 6.87288C12.9005 6.87777 12.9853 6.85807 13.0597 6.81613L14.1252 6.21496L15.1907 6.81613C15.265 6.85807 15.3498 6.87777 15.435 6.87288C15.5202 6.86799 15.6022 6.83873 15.6713 6.78856C15.7403 6.7384 15.7935 6.66946 15.8245 6.58993C15.8554 6.51041 15.8629 6.42366 15.846 6.34001L15.6034 5.14086L16.5045 4.31332C16.5674 4.25559 16.6123 4.18101 16.634 4.09847C16.6557 4.01593 16.6532 3.92891 16.6268 3.84775ZM14.8158 4.65488C14.7594 4.70675 14.7172 4.77232 14.6935 4.84526C14.6698 4.91819 14.6654 4.99601 14.6806 5.07117L14.7798 5.56168L14.344 5.31572C14.2772 5.27803 14.2018 5.25823 14.1251 5.25823C14.0484 5.25823 13.973 5.27803 13.9062 5.31572L13.4704 5.56168L13.5697 5.07117C13.5849 4.99601 13.5804 4.91819 13.5567 4.84526C13.533 4.77232 13.4909 4.70675 13.4344 4.65488L13.0658 4.31636L13.5631 4.25918C13.6392 4.25042 13.7119 4.22213 13.7739 4.17705C13.836 4.13198 13.8853 4.07165 13.9172 4.0019L14.1252 3.54675L14.3332 4.0019C14.3651 4.07165 14.4145 4.13198 14.4765 4.17705C14.5385 4.22213 14.6112 4.25042 14.6874 4.25918L15.1846 4.31636L14.8158 4.65488ZM5.02526 3.84775C4.99889 3.76658 4.94974 3.6947 4.88368 3.64067C4.81762 3.58663 4.73743 3.55272 4.65264 3.54297L3.43698 3.4031L2.92858 2.29038C2.8931 2.21276 2.83606 2.14696 2.76426 2.10084C2.69246 2.05471 2.60891 2.03018 2.52356 2.03018C2.43822 2.03018 2.35467 2.05471 2.28287 2.10084C2.21107 2.14696 2.15403 2.21276 2.11855 2.29038L1.60982 3.4031L0.394412 3.54297C0.30963 3.55272 0.229437 3.58663 0.163378 3.64066C0.0973187 3.6947 0.0481766 3.76657 0.0218011 3.84773C-0.00457432 3.9289 -0.00707219 4.01593 0.0146049 4.09847C0.0362819 4.18102 0.0812209 4.25559 0.144072 4.31332L1.0452 5.14086L0.802616 6.34001C0.785697 6.42366 0.79317 6.51041 0.824147 6.58993C0.855124 6.66946 0.908298 6.7384 0.977342 6.78856C1.04639 6.83873 1.12839 6.86799 1.21359 6.87288C1.29879 6.87777 1.38361 6.85807 1.45793 6.81613L2.52345 6.21496L3.58894 6.81613C3.66326 6.85807 3.74808 6.87777 3.83328 6.87288C3.91848 6.86799 4.00048 6.83873 4.06953 6.78856C4.13857 6.7384 4.19175 6.66946 4.22272 6.58993C4.2537 6.51041 4.26117 6.42366 4.24425 6.34001L4.00167 5.14086L4.90276 4.31332C4.96565 4.25562 5.01063 4.18106 5.03235 4.09851C5.05406 4.01597 5.0516 3.92893 5.02526 3.84775ZM3.21432 4.65488C3.15784 4.70675 3.11571 4.77232 3.09201 4.84526C3.06831 4.91819 3.06385 4.99601 3.07906 5.07117L3.17829 5.56168L2.74247 5.31572C2.67567 5.278 2.60025 5.25818 2.52353 5.25818C2.44681 5.25818 2.37139 5.278 2.30458 5.31572L1.86877 5.56168L1.96796 5.07117C1.98317 4.99601 1.97871 4.91819 1.95501 4.84526C1.93131 4.77232 1.88918 4.70675 1.8327 4.65488L1.46413 4.31636L1.96139 4.25918C2.03758 4.25042 2.11021 4.22213 2.17226 4.17705C2.2343 4.13198 2.28365 4.07165 2.31553 4.0019L2.52356 3.54675L2.73138 4.0019C2.76326 4.07165 2.81261 4.13198 2.87465 4.17705C2.93669 4.22213 3.00933 4.25042 3.08551 4.25918L3.58278 4.31636L3.21432 4.65488Z" fill="#313C0B"/>
</svg>
