<svg width="14" height="16" viewBox="0 0 14 16" fill="none" xmlns="http://www.w3.org/2000/svg">
<path d="M6.57349 7.70728C7.63232 7.70728 8.54907 7.32751 9.29834 6.57825C10.0474 5.8291 10.4272 4.91248 10.4272 3.85352C10.4272 2.79492 10.0475 1.87817 9.29822 1.12878C8.54895 0.379761 7.6322 0 6.57349 0C5.51453 0 4.5979 0.379761 3.84875 1.12891C3.09961 1.87805 2.71973 2.7948 2.71973 3.85352C2.71973 4.91248 3.09961 5.82922 3.84875 6.57837C4.59814 7.32739 5.51489 7.70728 6.57349 7.70728ZM4.51184 1.79187C5.08667 1.21704 5.76099 0.937622 6.57349 0.937622C7.38586 0.937622 8.0603 1.21704 8.63525 1.79187C9.21008 2.36682 9.48962 3.04126 9.48962 3.85352C9.48962 4.66602 9.21008 5.34033 8.63525 5.91528C8.0603 6.49023 7.38586 6.76965 6.57349 6.76965C5.76123 6.76965 5.08691 6.49011 4.51184 5.91528C3.93689 5.34045 3.65735 4.66602 3.65735 3.85352C3.65735 3.04126 3.93689 2.36682 4.51184 1.79187Z" fill="#313C0B"/>
<path d="M13.3165 12.3031C13.2949 11.9913 13.2512 11.6512 13.1869 11.2921C13.1219 10.9303 13.0383 10.5883 12.9382 10.2756C12.8347 9.95251 12.6942 9.63342 12.5203 9.32764C12.34 9.01025 12.1281 8.73389 11.8903 8.50647C11.6416 8.26855 11.3372 8.07727 10.9851 7.93774C10.6343 7.79895 10.2455 7.72864 9.82959 7.72864C9.66626 7.72864 9.5083 7.79565 9.20325 7.99426C9.0155 8.1167 8.7959 8.2583 8.55078 8.41492C8.34119 8.54846 8.05725 8.67358 7.70654 8.78687C7.36438 8.89758 7.01697 8.95374 6.67395 8.95374C6.33118 8.95374 5.98376 8.89758 5.64136 8.78687C5.29102 8.67371 5.00696 8.54858 4.79773 8.41504C4.55493 8.25989 4.33521 8.11829 4.14465 7.99414C3.83984 7.79553 3.68188 7.72852 3.51855 7.72852C3.10254 7.72852 2.71387 7.79895 2.36316 7.93787C2.01135 8.07715 1.70679 8.26843 1.45789 8.50659C1.22009 8.73413 1.00818 9.01038 0.828003 9.32764C0.654297 9.63342 0.513672 9.95239 0.410156 10.2758C0.310181 10.5884 0.226562 10.9303 0.161621 11.2921C0.097168 11.6508 0.0535889 11.991 0.0319824 12.3035C0.0107422 12.609 0 12.927 0 13.2483C0 14.0835 0.265503 14.7596 0.789062 15.2583C1.30615 15.7504 1.99023 15.9999 2.82239 15.9999H10.5265C11.3584 15.9999 12.0425 15.7504 12.5597 15.2583C13.0834 14.76 13.3489 14.0836 13.3489 13.2482C13.3488 12.9258 13.3379 12.6078 13.3165 12.3031ZM11.9132 14.579C11.5715 14.9042 11.1179 15.0623 10.5264 15.0623H2.82239C2.23071 15.0623 1.7771 14.9042 1.43555 14.5791C1.10046 14.2601 0.937622 13.8247 0.937622 13.2483C0.937622 12.9485 0.94751 12.6525 0.967285 12.3683C0.986572 12.0895 1.026 11.7832 1.08447 11.4578C1.14221 11.1364 1.2157 10.8347 1.3031 10.5616C1.38696 10.2998 1.50134 10.0405 1.64319 9.79077C1.77856 9.55273 1.93433 9.34851 2.1062 9.18396C2.26697 9.03003 2.4696 8.90405 2.70837 8.80957C2.9292 8.72217 3.17737 8.67432 3.44678 8.66711C3.47961 8.68457 3.53809 8.7179 3.63281 8.77966C3.82556 8.90527 4.04773 9.04858 4.29333 9.20544C4.57019 9.38196 4.92688 9.54138 5.35303 9.67896C5.7887 9.81982 6.23303 9.89136 6.67407 9.89136C7.11511 9.89136 7.55957 9.81982 7.995 9.67908C8.42151 9.54126 8.77808 9.38196 9.0553 9.2052C9.30664 9.04456 9.52258 8.9054 9.71533 8.77966C9.81006 8.71802 9.86853 8.68457 9.90137 8.66711C10.1709 8.67432 10.4191 8.72217 10.64 8.80957C10.8787 8.90405 11.0813 9.03015 11.2421 9.18396C11.4139 9.34839 11.5697 9.55261 11.7051 9.79089C11.847 10.0405 11.9615 10.2999 12.0453 10.5615C12.1328 10.835 12.2064 11.1365 12.264 11.4576C12.3224 11.7837 12.3619 12.0901 12.3812 12.3684V12.3687C12.4011 12.6517 12.4111 12.9476 12.4113 13.2483C12.4111 13.8248 12.2483 14.2601 11.9132 14.579Z" fill="#313C0B"/>
</svg>
